<?xml version="1.0" encoding="UTF-8" standalone="no"?>
<!DOCTYPE svg PUBLIC "-//W3C//DTD SVG 1.1//EN" "http://www.w3.org/Graphics/SVG/1.1/DTD/svg11.dtd">
<svg width="100%" height="100%" viewBox="0 0 428 69" version="1.1" xmlns="http://www.w3.org/2000/svg" xmlns:xlink="http://www.w3.org/1999/xlink" xml:space="preserve" xmlns:serif="http://www.serif.com/" style="fill-rule:evenodd;clip-rule:evenodd;stroke-linejoin:round;stroke-miterlimit:2;">
    <g transform="matrix(1,0,0,1,-3914.23,-794.014)">
        <g transform="matrix(1.29531,0,0,0.917995,-865.295,25.3741)">
            <g transform="matrix(0.801266,0,0,1.1306,3225,777.226)">
                <path d="M700.293,98.508L679.712,98.508L679.712,70.027L686.11,70.027L686.11,92.419L700.293,92.419L700.293,98.508Z" style="fill:rgb(14,14,86);fill-rule:nonzero;"/>
                <path d="M718.869,79.624L718.869,77.388L724.573,77.388L724.573,98.508L718.869,98.508L718.869,96.35C717.07,98.148 714.899,99.048 712.356,99.048C709.35,99.048 706.857,97.981 704.879,95.849C702.926,93.716 701.95,91.044 701.95,87.833C701.95,84.698 702.939,82.077 704.917,79.97C706.896,77.889 709.375,76.849 712.356,76.849C714.899,76.849 717.07,77.774 718.869,79.624ZM708.001,87.91C708.001,89.477 708.502,90.813 709.504,91.918C710.557,92.997 711.855,93.536 713.396,93.536C714.964,93.536 716.261,92.984 717.289,91.879C718.342,90.749 718.869,89.425 718.869,87.91C718.869,86.394 718.342,85.083 717.289,83.979C716.235,82.899 714.938,82.36 713.396,82.36C711.855,82.36 710.557,82.899 709.504,83.979C708.502,85.058 708.001,86.368 708.001,87.91Z" style="fill:rgb(14,14,86);fill-rule:nonzero;"/>
                <path d="M739.218,90.453L743.766,77.388L750.317,77.388L741.954,99.086C740.849,101.938 739.539,104.051 738.023,105.426C736.507,106.801 734.645,107.488 732.435,107.488C730.714,107.488 729.288,107.115 728.157,106.37L729.275,101.36C730.174,101.848 731.086,102.092 732.011,102.092C733.707,102.092 735.069,101.013 736.096,98.855L736.366,98.238L727.155,77.388L734.131,77.388L739.218,90.453Z" style="fill:rgb(14,14,86);fill-rule:nonzero;"/>
                <path d="M772.709,87.447C772.709,88.064 772.645,88.912 772.516,89.991L756.985,89.991C757.704,92.637 759.618,93.96 762.727,93.96C765.091,93.96 767.288,93.279 769.318,91.918L771.707,96.042C769.138,97.994 766.055,98.971 762.458,98.971C758.732,98.971 755.867,97.904 753.863,95.772C751.885,93.639 750.896,91.018 750.896,87.91C750.896,84.749 751.923,82.116 753.979,80.009C756.009,77.902 758.693,76.849 762.034,76.849C765.117,76.849 767.673,77.799 769.703,79.701C771.707,81.602 772.709,84.184 772.709,87.447ZM765.155,82.784C764.307,82.09 763.267,81.743 762.034,81.743C760.8,81.743 759.728,82.09 758.816,82.784C757.903,83.477 757.28,84.441 756.946,85.674L766.89,85.674C766.607,84.441 766.029,83.477 765.155,82.784Z" style="fill:rgb(14,14,86);fill-rule:nonzero;"/>
                <path d="M782.306,98.508L776.255,98.508L776.255,77.388L782.036,77.388L782.036,80.125C783.398,77.915 785.312,76.81 787.778,76.81C788.6,76.81 789.474,76.977 790.399,77.311L789.898,83.092C789.024,82.784 788.138,82.63 787.239,82.63C785.697,82.63 784.49,83.15 783.616,84.19C782.742,85.231 782.306,86.792 782.306,88.873L782.306,98.508Z" style="fill:rgb(14,14,86);fill-rule:nonzero;"/>
                <path d="M792.48,99.125C791.504,99.125 790.688,98.804 790.033,98.161C789.378,97.519 789.05,96.71 789.05,95.733C789.05,94.783 789.378,93.986 790.033,93.344C790.688,92.701 791.504,92.38 792.48,92.38C793.405,92.38 794.189,92.708 794.831,93.363C795.473,94.018 795.795,94.808 795.795,95.733C795.795,96.71 795.473,97.519 794.831,98.161C794.189,98.804 793.405,99.125 792.48,99.125Z" style="fill:rgb(224,58,251);fill-rule:nonzero;"/>
                <path d="M819.998,98.508L800.15,98.508L800.15,70.027L820.036,70.027L820.036,75.962L806.547,75.962L806.547,81.242L819.034,81.242L819.034,87.139L806.547,87.139L806.547,92.573L819.998,92.573L819.998,98.508Z" style="fill:rgb(14,14,86);fill-rule:nonzero;"/>
                <path d="M836.994,87.91L843.623,98.508L836.647,98.508L832.986,91.918L829.093,98.508L822.194,98.508L829.016,87.794L822.965,77.388L829.864,77.388L833.101,83.555L836.647,77.388L843.43,77.388L836.994,87.91Z" style="fill:rgb(14,14,86);fill-rule:nonzero;"/>
                <path d="M855.3,98.971C852.011,98.971 849.314,97.943 847.207,95.887C845.126,93.806 844.085,91.147 844.085,87.91C844.085,84.647 845.138,82 847.245,79.97C849.352,77.889 852.076,76.849 855.416,76.849C857.625,76.849 859.623,77.375 861.409,78.429C863.194,79.482 864.511,80.96 865.359,82.861L860.542,85.443C859.308,83.439 857.638,82.437 855.531,82.437C853.99,82.437 852.692,82.964 851.639,84.017C850.611,85.045 850.097,86.342 850.097,87.91C850.097,89.528 850.598,90.851 851.6,91.879C852.628,92.907 853.913,93.421 855.454,93.421C856.508,93.421 857.491,93.145 858.403,92.592C859.315,92.04 859.989,91.327 860.426,90.453L865.321,93.344C864.396,95.065 863.04,96.433 861.255,97.448C859.469,98.463 857.484,98.971 855.3,98.971Z" style="fill:rgb(14,14,86);fill-rule:nonzero;"/>
                <path d="M874.493,98.508L868.442,98.508L868.442,69.179L874.339,69.179L874.339,80.202C874.93,79.225 875.816,78.416 876.998,77.774C878.18,77.131 879.516,76.81 881.006,76.81C883.267,76.81 885.194,77.568 886.787,79.084C888.38,80.6 889.177,82.771 889.177,85.597L889.177,98.508L883.126,98.508L883.126,87.177C883.126,85.661 882.76,84.48 882.028,83.632C881.295,82.784 880.3,82.36 879.041,82.36C877.679,82.36 876.581,82.816 875.746,83.728C874.911,84.64 874.493,85.841 874.493,87.331L874.493,98.508Z" style="fill:rgb(14,14,86);fill-rule:nonzero;"/>
                <path d="M909.449,79.624L909.449,77.388L915.153,77.388L915.153,98.508L909.449,98.508L909.449,96.35C907.65,98.148 905.479,99.048 902.936,99.048C899.929,99.048 897.437,97.981 895.459,95.849C893.506,93.716 892.53,91.044 892.53,87.833C892.53,84.698 893.519,82.077 895.497,79.97C897.476,77.889 899.955,76.849 902.936,76.849C905.479,76.849 907.65,77.774 909.449,79.624ZM898.58,87.91C898.58,89.477 899.082,90.813 900.084,91.918C901.137,92.997 902.434,93.536 903.976,93.536C905.543,93.536 906.841,92.984 907.869,91.879C908.922,90.749 909.449,89.425 909.449,87.91C909.449,86.394 908.922,85.083 907.869,83.979C906.815,82.899 905.518,82.36 903.976,82.36C902.434,82.36 901.137,82.899 900.084,83.979C899.082,85.058 898.58,86.368 898.58,87.91Z" style="fill:rgb(14,14,86);fill-rule:nonzero;"/>
                <path d="M925.867,98.508L919.816,98.508L919.816,77.388L925.713,77.388L925.713,80.317C926.278,79.289 927.158,78.448 928.353,77.793C929.547,77.138 930.89,76.81 932.38,76.81C934.667,76.81 936.607,77.568 938.2,79.084C939.793,80.6 940.589,82.771 940.589,85.597L940.589,98.508L934.538,98.508L934.538,87.177C934.538,85.661 934.166,84.48 933.421,83.632C932.675,82.784 931.673,82.36 930.414,82.36C929.053,82.36 927.954,82.816 927.119,83.728C926.284,84.64 925.867,85.841 925.867,87.331L925.867,98.508Z" style="fill:rgb(14,14,86);fill-rule:nonzero;"/>
                <path d="M960.938,79.469L960.938,77.388L966.449,77.388L966.449,96.427C966.449,99.844 965.332,102.529 963.096,104.482C960.912,106.486 958.086,107.488 954.618,107.488C950.918,107.488 947.629,106.434 944.751,104.328L947.064,99.857C949.479,101.501 951.92,102.324 954.386,102.324C956.339,102.324 957.874,101.816 958.992,100.801C960.109,99.786 960.668,98.482 960.668,96.889L960.668,96.08C959.101,97.724 957.02,98.547 954.425,98.547C951.316,98.547 948.785,97.532 946.832,95.502C944.88,93.472 943.903,90.89 943.903,87.755C943.903,84.569 944.931,81.949 946.987,79.893C949.016,77.864 951.573,76.849 954.656,76.849C957.174,76.849 959.268,77.722 960.938,79.469ZM960.745,87.794C960.745,86.227 960.238,84.936 959.223,83.921C958.208,82.906 956.93,82.398 955.388,82.398C953.847,82.398 952.562,82.912 951.534,83.94C950.507,84.942 949.993,86.227 949.993,87.794C949.993,89.387 950.507,90.697 951.534,91.725C952.588,92.778 953.872,93.305 955.388,93.305C956.93,93.305 958.202,92.791 959.204,91.764C960.232,90.736 960.745,89.413 960.745,87.794Z" style="fill:rgb(14,14,86);fill-rule:nonzero;"/>
                <path d="M991.886,87.447C991.886,88.064 991.821,88.912 991.693,89.991L976.161,89.991C976.881,92.637 978.795,93.96 981.904,93.96C984.268,93.96 986.464,93.279 988.494,91.918L990.884,96.042C988.314,97.994 985.231,98.971 981.634,98.971C977.908,98.971 975.044,97.904 973.04,95.772C971.061,93.639 970.072,91.018 970.072,87.91C970.072,84.749 971.1,82.116 973.155,80.009C975.185,77.902 977.87,76.849 981.21,76.849C984.293,76.849 986.85,77.799 988.88,79.701C990.884,81.602 991.886,84.184 991.886,87.447ZM984.332,82.784C983.484,82.09 982.443,81.743 981.21,81.743C979.977,81.743 978.904,82.09 977.992,82.784C977.08,83.477 976.457,84.441 976.123,85.674L986.066,85.674C985.783,84.441 985.205,83.477 984.332,82.784Z" style="fill:rgb(14,14,86);fill-rule:nonzero;"/>
            </g>
            <g transform="matrix(0.960945,0,0,0.960945,146.856,33.5132)">
                <g transform="matrix(0.621279,0,0,1.13295,2415.96,532.643)">
                    <path d="M2154.96,314.18L2054.62,314.18L2054.62,331.327C2054.62,333.261 2056.64,334.829 2059.14,334.829C2075.82,334.829 2133.76,334.829 2150.43,334.829C2152.93,334.829 2154.96,333.261 2154.96,331.327C2154.96,325.436 2154.96,314.18 2154.96,314.18Z" style="fill:rgb(0,122,254);"/>
                    <clipPath id="_clip1">
                        <path d="M2154.96,314.18L2054.62,314.18L2054.62,331.327C2054.62,333.261 2056.64,334.829 2059.14,334.829C2075.82,334.829 2133.76,334.829 2150.43,334.829C2152.93,334.829 2154.96,333.261 2154.96,331.327C2154.96,325.436 2154.96,314.18 2154.96,314.18Z"/>
                    </clipPath>
                    <g clip-path="url(#_clip1)">
                        <g transform="matrix(1.30099,0,0,0.353448,-607.861,35.1088)">
                            <path d="M2128.01,799.206L2116.26,799.206C2116.26,799.206 2116.26,833.297 2116.26,841.058C2116.26,845.014 2110.96,844.002 2110.96,844.002L2128.01,843.923L2128.01,799.206Z" style="fill:rgb(2,109,224);"/>
                        </g>
                    </g>
                </g>
                <g transform="matrix(0.621279,0,0,1.13295,2415.96,532.643)">
                    <path d="M2157.14,314.18C2157.14,313.251 2156.16,312.498 2154.96,312.498L2054.62,312.498C2053.42,312.498 2052.44,313.251 2052.44,314.18L2052.44,331.464C2052.44,332.803 2053.13,334.087 2054.36,335.033C2055.58,335.98 2057.24,336.512 2058.97,336.512C2075.47,336.512 2134.11,336.512 2150.61,336.512C2152.34,336.512 2154,335.98 2155.22,335.033C2156.45,334.087 2157.14,332.803 2157.14,331.464C2157.14,325.612 2157.14,314.18 2157.14,314.18ZM2152.79,315.863L2152.79,331.464C2152.79,331.91 2152.56,332.338 2152.15,332.654C2151.74,332.969 2151.19,333.147 2150.61,333.147L2058.97,333.147C2058.39,333.147 2057.84,332.969 2057.43,332.654C2057.02,332.338 2056.79,331.91 2056.79,331.464L2056.79,315.863L2152.79,315.863Z" style="fill:rgb(46,24,143);"/>
                </g>
                <g transform="matrix(0.621279,0,0,1.06693,2415.96,539.008)">
                    <path d="M2154.96,314.18L2054.62,314.18L2054.62,331.11C2054.62,333.164 2056.64,334.829 2059.14,334.829C2075.82,334.829 2133.76,334.829 2150.43,334.829C2152.93,334.829 2154.96,333.164 2154.96,331.11C2154.96,325.165 2154.96,314.18 2154.96,314.18Z" style="fill:rgb(224,58,251);"/>
                    <clipPath id="_clip2">
                        <path d="M2154.96,314.18L2054.62,314.18L2054.62,331.11C2054.62,333.164 2056.64,334.829 2059.14,334.829C2075.82,334.829 2133.76,334.829 2150.43,334.829C2152.93,334.829 2154.96,333.164 2154.96,331.11C2154.96,325.165 2154.96,314.18 2154.96,314.18Z"/>
                    </clipPath>
                    <g clip-path="url(#_clip2)">
                        <g transform="matrix(1.30099,0,0,0.353448,-607.861,35.1088)">
                            <path d="M2128.01,799.206L2116.26,799.206C2116.26,799.206 2116.26,833.297 2116.26,841.058C2116.26,845.014 2110.96,844.002 2110.96,844.002L2128.01,843.923L2128.01,799.206Z" style="fill:rgb(187,54,209);"/>
                        </g>
                    </g>
                </g>
                <g transform="matrix(0.621279,0,0,1.06693,2415.96,539.008)">
                    <path d="M2157.14,314.18C2157.14,313.194 2156.16,312.394 2154.96,312.394L2054.62,312.394C2053.42,312.394 2052.44,313.194 2052.44,314.18L2052.44,331.256C2052.44,332.677 2053.13,334.041 2054.36,335.046C2055.58,336.051 2057.24,336.616 2058.97,336.616C2075.47,336.616 2134.11,336.616 2150.61,336.616C2152.34,336.616 2154,336.051 2155.22,335.046C2156.45,334.041 2157.14,332.677 2157.14,331.256L2157.14,314.18ZM2152.79,315.967L2152.79,331.256C2152.79,331.73 2152.56,332.184 2152.15,332.519C2151.74,332.854 2151.19,333.042 2150.61,333.042L2058.97,333.042C2058.39,333.042 2057.84,332.854 2057.43,332.519C2057.02,332.184 2056.79,331.73 2056.79,331.256C2056.79,331.256 2056.79,315.967 2056.79,315.967L2152.79,315.967Z" style="fill:rgb(46,24,143);"/>
                </g>
                <g transform="matrix(0.621279,0,0,0.865752,2415.96,597.672)">
                    <path d="M2154.96,312.461L2054.62,312.471C2054.62,312.471 2054.62,323.705 2054.62,330.246C2054.62,331.462 2055.1,332.627 2055.95,333.487C2056.79,334.346 2057.95,334.829 2059.14,334.829C2075.82,334.829 2133.76,334.829 2150.43,334.829C2151.64,334.829 2152.79,334.346 2153.64,333.487C2154.48,332.627 2154.96,331.462 2154.96,330.246C2154.96,323.702 2154.96,312.461 2154.96,312.461Z" style="fill:rgb(0,122,254);"/>
                    <clipPath id="_clip3">
                        <path d="M2154.96,312.461L2054.62,312.471C2054.62,312.471 2054.62,323.705 2054.62,330.246C2054.62,331.462 2055.1,332.627 2055.95,333.487C2056.79,334.346 2057.95,334.829 2059.14,334.829C2075.82,334.829 2133.76,334.829 2150.43,334.829C2151.64,334.829 2152.79,334.346 2153.64,333.487C2154.48,332.627 2154.96,331.462 2154.96,330.246C2154.96,323.702 2154.96,312.461 2154.96,312.461Z"/>
                    </clipPath>
                    <g clip-path="url(#_clip3)">
                        <g transform="matrix(1.30099,0,0,0.402066,-607.861,-4.86609)">
                            <path d="M2128.01,799.206L2113.11,799.35C2113.11,799.35 2116.25,802.912 2116.26,808.441C2116.27,818.948 2116.26,844.874 2116.26,844.874L2128.01,844.874L2128.01,799.206Z" style="fill:rgb(2,109,224);"/>
                        </g>
                    </g>
                </g>
                <g transform="matrix(0.621279,0,0,0.865752,2415.96,597.672)">
                    <path d="M2157.14,312.461C2157.14,311.877 2156.91,311.317 2156.5,310.904C2156.09,310.491 2155.54,310.259 2154.96,310.259L2054.62,310.269C2053.42,310.269 2052.44,311.255 2052.44,312.471L2052.44,330.425C2052.44,332.177 2053.13,333.857 2054.36,335.096C2055.58,336.335 2057.24,337.031 2058.97,337.031C2075.47,337.031 2134.11,337.031 2150.61,337.031C2152.34,337.031 2154,336.335 2155.22,335.096C2156.45,333.857 2157.14,332.177 2157.14,330.425C2157.14,323.909 2157.14,312.461 2157.14,312.461ZM2152.79,314.663L2152.79,330.425C2152.79,331.009 2152.56,331.569 2152.15,331.982C2151.74,332.395 2151.19,332.627 2150.61,332.627L2058.97,332.627C2058.39,332.627 2057.84,332.395 2057.43,331.982C2057.02,331.569 2056.79,331.009 2056.79,330.425L2056.79,314.673L2152.79,314.663Z" style="fill:rgb(46,24,143);"/>
                </g>
                <g transform="matrix(0.682768,0,0,0.963397,2285.53,757.925)">
                    <path d="M2090.91,118.517C2085.98,118.342 2073.88,118.365 2064.6,118.414C2062.99,118.414 2061.57,117.367 2061.09,115.832C2060.61,114.296 2061.19,112.628 2062.51,111.716C2073.44,104.192 2090.74,92.275 2100,85.893C2103.83,83.258 2108.89,83.261 2112.71,85.9C2121.94,92.275 2139.16,104.163 2150.06,111.69C2151.38,112.603 2151.95,114.267 2151.48,115.8C2151,117.333 2149.59,118.38 2147.98,118.386C2138.32,118.302 2125.72,118.255 2121.86,118.517C2116.92,118.853 2120.1,133.957 2120.48,139.68C2120.8,144.552 2119.47,148.253 2115.52,148.437C2111.84,148.609 2109.72,145.541 2110,141.785C2110.4,136.404 2108.65,134.477 2106.09,134.948C2103.96,135.339 2103.29,137.623 2103.23,142.253C2103.2,144.22 2103.65,146.875 2103.56,150.085C2103.46,153.557 2101.15,156.506 2098.25,156.479C2094.45,156.444 2092.66,153.144 2092.6,149.195C2092.54,146.2 2092.8,143.175 2093.33,139.398C2093.75,136.426 2095.44,118.679 2090.91,118.517Z" style="fill:white;"/>
                    <clipPath id="_clip4">
                        <path d="M2090.91,118.517C2085.98,118.342 2073.88,118.365 2064.6,118.414C2062.99,118.414 2061.57,117.367 2061.09,115.832C2060.61,114.296 2061.19,112.628 2062.51,111.716C2073.44,104.192 2090.74,92.275 2100,85.893C2103.83,83.258 2108.89,83.261 2112.71,85.9C2121.94,92.275 2139.16,104.163 2150.06,111.69C2151.38,112.603 2151.95,114.267 2151.48,115.8C2151,117.333 2149.59,118.38 2147.98,118.386C2138.32,118.302 2125.72,118.255 2121.86,118.517C2116.92,118.853 2120.1,133.957 2120.48,139.68C2120.8,144.552 2119.47,148.253 2115.52,148.437C2111.84,148.609 2109.72,145.541 2110,141.785C2110.4,136.404 2108.65,134.477 2106.09,134.948C2103.96,135.339 2103.29,137.623 2103.23,142.253C2103.2,144.22 2103.65,146.875 2103.56,150.085C2103.46,153.557 2101.15,156.506 2098.25,156.479C2094.45,156.444 2092.66,153.144 2092.6,149.195C2092.54,146.2 2092.8,143.175 2093.33,139.398C2093.75,136.426 2095.44,118.679 2090.91,118.517Z"/>
                    </clipPath>
                    <g clip-path="url(#_clip4)">
                        <g transform="matrix(1.18382,0,0,1.18382,-379.448,-689.147)">
                            <path d="M2088.83,707.238C2088.83,707.238 2092.21,709.672 2093.7,707.753C2095.3,705.685 2093.82,699.087 2096.62,696.71C2096.68,698.384 2096.35,703.288 2096.59,704.675C2096.83,706.117 2097.09,708.589 2096.82,710.906C2096.67,712.241 2094.59,715.003 2092.9,715.197C2091.31,715.38 2088.76,710.145 2088.83,707.238Z" style="fill:rgb(172,204,255);"/>
                        </g>
                        <g transform="matrix(1.18382,0,0,1.18382,-362.079,-699.338)">
                            <path d="M2089.44,710.032C2089.44,710.032 2092.5,711.939 2093.57,709.764C2094.5,707.895 2093.68,700.501 2094.39,697.87C2095.49,700.636 2095.49,703.249 2095.63,704.57C2095.77,705.89 2095.93,708.986 2095.93,710.33C2095.92,711.675 2094.44,716.549 2092.85,716.578C2091.29,716.606 2087.45,713.194 2089.44,710.032Z" style="fill:rgb(172,204,255);"/>
                        </g>
                        <g transform="matrix(1.18382,0,0,1.18382,-362.079,-699.338)">
                            <path d="M2080.22,664.926C2082.57,662.19 2087.2,662.258 2089.85,663.975C2091.31,664.916 2113.51,680.448 2122.46,686.714C2122.97,687.064 2123.18,687.7 2122.99,688.283C2122.81,688.865 2122.26,689.258 2121.65,689.251C2117.41,689.2 2111.7,689.133 2111.7,689.133C2111.7,689.133 2114.35,687.178 2111.43,684.404C2110.07,683.12 2098.61,675.029 2090.56,669.264C2088.24,667.605 2085.22,665.388 2080.22,664.926Z" style="fill:rgb(208,226,255);"/>
                        </g>
                    </g>
                </g>
                <g transform="matrix(0.682768,0,0,0.963397,2285.53,757.925)">
                    <path d="M2090.71,120.491C2090.78,120.583 2090.93,120.795 2091,120.96C2091.25,121.486 2091.42,122.151 2091.57,122.904C2092.56,128.157 2091.65,137.123 2091.37,139.124C2090.83,143.02 2090.56,146.14 2090.62,149.229C2090.7,154.353 2093.3,158.412 2098.23,158.458C2102.1,158.493 2105.4,154.766 2105.54,150.142C2105.63,146.919 2105.18,144.254 2105.21,142.279C2105.23,140.61 2105.33,139.278 2105.57,138.26C2105.75,137.527 2105.89,136.996 2106.45,136.894C2106.73,136.843 2106.98,136.823 2107.2,136.939C2107.43,137.064 2107.57,137.32 2107.7,137.648C2108.06,138.561 2108.16,139.876 2108.03,141.638C2107.65,146.678 2110.68,150.644 2115.62,150.414C2120.66,150.179 2122.87,145.765 2122.45,139.549C2122.23,136.155 2120.99,129.423 2121.11,124.509C2121.14,123.13 2121.26,121.916 2121.62,121.038C2121.72,120.782 2121.75,120.508 2121.99,120.492C2125.9,120.226 2138.77,120.283 2148.43,120.368C2148.43,120.368 2148.44,120.368 2148.45,120.368C2150.86,120.361 2152.98,118.792 2153.7,116.493C2154.41,114.193 2153.55,111.697 2151.57,110.328L2113.58,84.101C2109.23,81.097 2103.48,81.094 2099.13,84.092C2089.82,90.504 2072,102.777 2061.01,110.351C2059.02,111.719 2058.16,114.22 2058.87,116.523C2059.59,118.827 2061.72,120.396 2064.13,120.395C2064.14,120.395 2064.14,120.395 2064.14,120.395C2073.37,120.345 2085.63,120.318 2090.71,120.491ZM2090.98,116.54C2085.95,116.361 2073.49,116.387 2064.13,116.438C2063.45,116.437 2062.85,115.996 2062.65,115.348C2062.45,114.699 2062.69,113.995 2063.25,113.61C2063.25,113.61 2063.25,113.61 2063.25,113.61C2074.25,106.036 2092.07,93.763 2101.37,87.351C2104.37,85.285 2108.34,85.288 2111.34,87.357C2111.34,87.357 2149.32,113.584 2149.32,113.584C2149.87,113.969 2150.12,114.672 2149.92,115.319C2149.72,115.961 2149.13,116.401 2148.46,116.411C2138.68,116.325 2125.67,116.275 2121.72,116.543C2119.43,116.699 2117.84,118.596 2117.35,121.862C2116.6,126.896 2118.23,135.709 2118.5,139.811C2118.61,141.478 2118.52,142.987 2118.13,144.205C2117.71,145.507 2116.88,146.393 2115.43,146.461C2113.01,146.574 2111.79,144.407 2111.97,141.932C2112.28,137.847 2111.34,135.395 2110.05,134.168C2108.92,133.089 2107.44,132.687 2105.73,133.002C2103.98,133.324 2102.76,134.351 2102.03,136.327C2101.53,137.678 2101.29,139.62 2101.25,142.228C2101.23,144.187 2101.67,146.83 2101.58,150.028C2101.51,152.353 2100.21,154.518 2098.27,154.5C2095.59,154.475 2094.62,151.941 2094.57,149.16C2094.52,146.26 2094.78,143.331 2095.29,139.673C2095.6,137.513 2096.53,127.838 2095.45,122.17C2095.12,120.379 2094.55,118.939 2093.83,118.04C2093.05,117.078 2092.09,116.579 2090.98,116.54Z" style="fill:rgb(46,24,143);"/>
                </g>
            </g>
        </g>
    </g>
</svg>
